<?xml version="1.0" standalone="no"?>
<!DOCTYPE svg PUBLIC "-//W3C//DTD SVG 20010904//EN"
 "http://www.w3.org/TR/2001/REC-SVG-20010904/DTD/svg10.dtd">
<svg version="1.0" xmlns="http://www.w3.org/2000/svg"
 width="700.000000pt" height="700.000000pt" viewBox="0 0 700.000000 700.000000"
 preserveAspectRatio="xMidYMid meet">
<metadata>
Created by potrace 1.14, written by Peter Selinger 2001-2017
</metadata>
<g transform="translate(0.000000,700.000000) scale(0.100000,-0.100000)"
fill="#000000" stroke="none">
<path d="M4942 6975 c-93 -43 -218 -188 -330 -385 -59 -102 -92 -128 -232
-185 -208 -84 -319 -173 -444 -359 -25 -39 -46 -73 -46 -78 0 -5 -11 -25 -23
-46 -25 -39 -55 -124 -82 -231 -17 -66 -23 -220 -11 -257 12 -37 -150 -221
-294 -335 -144 -114 -355 -228 -510 -275 -89 -27 -92 -27 -180 -45 -344 -67
-641 -309 -971 -789 -78 -114 -226 -356 -267 -437 -76 -150 -114 -368 -115
-663 -1 -147 13 -406 27 -515 3 -28 8 -68 11 -90 5 -43 33 -237 39 -270 3 -11
12 -56 21 -100 16 -75 22 -204 11 -251 -2 -12 -7 -45 -11 -75 -5 -38 -18 -72
-45 -114 -119 -184 -181 -378 -175 -548 4 -105 23 -184 65 -272 49 -103 118
-185 247 -297 50 -42 206 -133 290 -168 201 -84 352 -125 613 -164 177 -27
699 -28 835 -2 11 2 49 7 85 11 56 6 194 29 295 50 323 66 617 164 686 228 29
27 23 46 -18 65 -56 24 -416 23 -552 -3 -28 -5 -125 -18 -151 -20 -14 -2 -38
-5 -55 -8 -94 -17 -264 -26 -475 -26 -281 0 -450 16 -700 66 -41 8 -86 17 -98
19 -41 8 -237 75 -247 85 -5 5 -15 9 -23 9 -27 0 -178 99 -230 151 -57 57 -98
132 -110 199 -9 52 4 178 20 197 6 7 8 13 4 13 -4 0 0 14 9 30 12 23 21 29 39
26 12 -2 54 -7 92 -11 38 -3 83 -8 99 -10 148 -19 1813 -38 2040 -23 311 21
371 39 394 125 35 126 -19 195 -185 239 -72 18 -159 29 -297 35 -67 3 -79 12
-37 29 39 16 125 102 165 164 33 53 62 124 67 165 3 24 3 24 18 -5 58 -113
162 -293 211 -364 203 -298 446 -385 793 -283 102 30 141 95 101 172 -14 28
-14 28 25 40 69 20 117 102 97 163 -9 29 -58 52 -132 63 -138 20 -174 26 -205
35 -19 5 -40 13 -46 18 -43 29 -48 118 -48 817 1 412 4 554 14 600 8 33 14 62
15 65 6 28 39 111 46 115 5 4 9 13 9 21 0 43 165 272 299 414 34 36 83 97 110
136 48 71 107 213 117 283 3 20 7 41 9 48 9 26 19 163 18 253 0 119 -11 233
-33 360 -5 30 -12 73 -16 95 -3 22 -16 92 -29 154 -13 63 -22 142 -22 174 2
56 4 61 42 93 22 18 94 61 160 95 196 101 260 152 324 253 47 75 67 147 62
224 -2 42 -51 78 -146 107 -124 37 -183 78 -267 179 -87 105 -150 136 -369
186 -70 16 -135 34 -146 41 -16 10 -20 25 -22 98 -6 211 -18 328 -41 404 -35
113 -88 139 -188 92z"/>
</g>
</svg>
